<?xml version="1.0" encoding="utf-8"?>
<!-- Generator: Adobe Illustrator 15.1.0, SVG Export Plug-In  -->
<!DOCTYPE svg PUBLIC "-//W3C//DTD SVG 1.1//EN" "http://www.w3.org/Graphics/SVG/1.1/DTD/svg11.dtd" [
	<!ENTITY ns_flows "http://ns.adobe.com/Flows/1.0/">
]>
<svg version="1.1"
	 xmlns="http://www.w3.org/2000/svg" xmlns:xlink="http://www.w3.org/1999/xlink" xmlns:a="http://ns.adobe.com/AdobeSVGViewerExtensions/3.0/"
	 x="0px" y="0px" width="573px" height="229px" viewBox="-166.792 -46.906 573 229"
	 overflow="visible" enable-background="new -166.792 -46.906 573 229" xml:space="preserve">
<defs>
</defs>
<path d="M0,54.058c0-7.415,1.414-14.417,4.249-21.007c2.833-6.589,6.688-12.33,11.583-17.221c4.887-4.888,10.626-8.75,17.219-11.583
	C39.644,1.414,46.641,0,54.055,0C61.47,0,68.47,1.414,75.06,4.246c6.593,2.833,12.334,6.695,17.223,11.583
	c4.892,4.891,8.746,10.632,11.586,17.221c2.828,6.59,4.242,13.593,4.242,21.007c0,7.41-1.414,14.413-4.242,21.004
	c-2.84,6.587-6.694,12.329-11.586,17.219c-4.889,4.891-10.63,8.75-17.223,11.579c-6.59,2.833-13.59,4.252-21.005,4.252
	c-7.414,0-14.411-1.419-21.004-4.252c-6.593-2.829-12.332-6.688-17.219-11.579c-4.896-4.89-8.75-10.632-11.583-17.219
	C1.414,68.471,0,61.467,0,54.058z M32.431,54.058c0,2.986,0.57,5.788,1.701,8.413c1.134,2.626,2.677,4.919,4.633,6.874
	c1.96,1.955,4.253,3.5,6.877,4.636c2.626,1.133,5.429,1.696,8.413,1.696c2.987,0,5.797-0.563,8.423-1.696
	c2.626-1.137,4.908-2.681,6.868-4.636c1.956-1.955,3.501-4.248,4.633-6.874c1.138-2.625,1.701-5.426,1.701-8.413
	s-0.563-5.797-1.701-8.422c-1.132-2.626-2.677-4.914-4.633-6.872c-1.96-1.953-4.242-3.499-6.868-4.631
	c-2.626-1.133-5.436-1.702-8.423-1.702c-2.984,0-5.787,0.569-8.413,1.702c-2.624,1.132-4.917,2.678-6.877,4.631
	c-1.956,1.958-3.499,4.246-4.633,6.872C33.001,48.261,32.431,51.071,32.431,54.058z"/>
<path d="M114.287,54.058c0-7.415,1.415-14.417,4.247-21.007c2.833-6.589,6.688-12.33,11.584-17.221
	c4.887-4.888,10.628-8.75,17.219-11.583C153.929,1.414,160.929,0,168.341,0c7.415,0,14.419,1.414,21.004,4.246
	c6.593,2.833,12.335,6.695,17.226,11.583c4.885,4.891,8.748,10.632,11.583,17.221c2.829,6.59,4.243,13.593,4.243,21.007
	c0,7.41-1.414,14.413-4.243,21.004c-2.835,6.587-6.698,12.329-11.583,17.219c-4.891,4.891-10.633,8.75-17.226,11.579
	c-6.585,2.833-13.589,4.252-21.004,4.252c-7.412,0-14.412-1.419-21.004-4.252c-6.591-2.829-12.332-6.688-17.219-11.579
	c-4.896-4.89-8.751-10.632-11.584-17.219C115.702,68.471,114.287,61.467,114.287,54.058z M146.719,54.058
	c0,2.986,0.567,5.788,1.699,8.413c1.134,2.626,2.679,4.919,4.632,6.874c1.961,1.955,4.254,3.5,6.88,4.636
	c2.619,1.133,5.426,1.696,8.411,1.696c2.987,0,5.792-0.563,8.418-1.696c2.626-1.137,4.919-2.681,6.873-4.636
	c1.956-1.955,3.501-4.248,4.632-6.874c1.134-2.625,1.701-5.426,1.701-8.413s-0.567-5.797-1.701-8.422
	c-1.131-2.626-2.676-4.914-4.632-6.872c-1.954-1.953-4.247-3.499-6.873-4.631c-2.626-1.133-5.431-1.702-8.418-1.702
	c-2.985,0-5.792,0.569-8.411,1.702c-2.626,1.132-4.919,2.678-6.88,4.631c-1.953,1.958-3.498,4.246-4.632,6.872
	C147.286,48.261,146.719,51.071,146.719,54.058z"/>
<path fill="#FF9900" d="M189.061,119.031c0,3.763,0,5.649,0,9.411c0,0.98-1.61,2.339-4.854,4.291
	c-3.246,1.951-7.924,4.409-14.427,7.007c-6.504,2.608-14.63,5.28-24.618,7.34c-9.991,2.053-21.603,3.412-34.514,3.402
	c-12.899-0.009-24.512-1.396-34.491-3.457c-9.972-2.071-18.052-4.743-24.457-7.313c-6.408-2.579-11.058-5.029-14.299-6.979
	c-3.24-1.952-4.848-3.311-4.848-4.291c0-3.762,0-5.648,0-9.411"/>
</svg>
